<?xml version="1.0" encoding="UTF-8"?>
<svg width="512" height="512" viewBox="0 0 512 512" fill="none" xmlns="http://www.w3.org/2000/svg">
  <rect width="512" height="512" rx="256" fill="#f0f4f9"/>
  <path d="M256 120C194.157 120 144 170.157 144 232C144 293.843 194.157 344 256 344C317.843 344 368 293.843 368 232C368 170.157 317.843 120 256 120ZM256 324C205.187 324 164 282.813 164 232C164 181.187 205.187 140 256 140C306.813 140 348 181.187 348 232C348 282.813 306.813 324 256 324Z" fill="#4361ee"/>
  <path d="M256 160C216.235 160 184 192.235 184 232C184 271.765 216.235 304 256 304C295.765 304 328 271.765 328 232C328 192.235 295.765 160 256 160ZM256 284C227.29 284 204 260.71 204 232C204 203.29 227.29 180 256 180C284.71 180 308 203.29 308 232C308 260.71 284.71 284 256 284Z" fill="#4361ee"/>
  <path d="M236 192C236 203.046 227.046 212 216 212C204.954 212 196 203.046 196 192C196 180.954 204.954 172 216 172C227.046 172 236 180.954 236 192Z" fill="#4361ee"/>
  <path d="M316 192C316 203.046 307.046 212 296 212C284.954 212 276 203.046 276 192C276 180.954 284.954 172 296 172C307.046 172 316 180.954 316 192Z" fill="#4361ee"/>
  <path d="M256 232C245.507 232 236.609 239.507 234.5 249.5C232.391 259.493 240 272 256 272C272 272 279.609 259.493 277.5 249.5C275.391 239.507 266.493 232 256 232Z" fill="#4361ee"/>
  <path d="M176 352C176 352 208 392 256 392C304 392 336 352 336 352" stroke="#4361ee" stroke-width="16" stroke-linecap="round"/>
  <path d="M144 120L168 96" stroke="#4361ee" stroke-width="12" stroke-linecap="round"/>
  <path d="M368 120L344 96" stroke="#4361ee" stroke-width="12" stroke-linecap="round"/>
</svg>

